<svg width="143" height="241" viewBox="0 0 143 241" fill="none" xmlns="http://www.w3.org/2000/svg">
<g id="Clip path group">
<mask id="mask0_9013_596" style="mask-type:luminance" maskUnits="userSpaceOnUse" x="0" y="0" width="143" height="241">
<g id="d28a4dbaf9">
<path id="Vector" d="M0 0H143V241H0V0Z" fill="white"/>
</g>
</mask>
<g mask="url(#mask0_9013_596)">
<g id="Group">
<path id="Vector_2" d="M73.2482 64.4834C73.3568 66.1628 73.5068 67.8335 73.6999 69.4926C73.893 71.1517 74.1275 72.7963 74.4016 74.4205C74.6774 76.0476 74.9929 77.6515 75.3481 79.2321C75.705 80.8128 76.0998 82.3672 76.5325 83.8927C76.967 85.4152 77.4376 86.9087 77.9462 88.3643C78.4548 89.8229 78.9996 91.2409 79.5789 92.621C80.1599 94.0012 80.7737 95.3377 81.4202 96.6307C82.0667 97.9237 82.746 99.1673 83.4546 100.364C84.1649 101.559 84.9028 102.703 85.67 103.793C86.4372 104.883 87.2303 105.917 88.0475 106.893C88.8664 107.872 89.7095 108.788 90.5732 109.648C91.4387 110.505 92.3231 111.298 93.2283 112.03C94.1334 112.76 95.054 113.425 95.9936 114.026C96.9315 114.625 97.8832 115.157 98.847 115.622C99.8124 116.084 100.787 116.479 101.773 116.804C102.757 117.13 103.748 117.382 104.745 117.565C114.413 119.352 126.894 120.506 143.007 120.506C126.896 120.506 114.413 121.659 104.745 123.446C103.748 123.629 102.757 123.882 101.773 124.208C100.787 124.533 99.8124 124.928 98.847 125.39C97.8832 125.855 96.9315 126.387 95.9936 126.985C95.054 127.587 94.1334 128.252 93.2283 128.981C92.3231 129.714 91.4387 130.507 90.5732 131.364C89.7095 132.221 88.8664 133.139 88.0475 134.116C87.2303 135.095 86.4372 136.129 85.67 137.219C84.9028 138.308 84.1649 139.453 83.4546 140.647C82.746 141.844 82.0667 143.088 81.4202 144.381C80.7737 145.674 80.1599 147.01 79.5789 148.388C78.9996 149.768 78.4548 151.189 77.9462 152.644C77.4376 154.103 76.967 155.594 76.5325 157.119C76.0998 158.644 75.705 160.196 75.3481 161.779C74.9929 163.36 74.6774 164.964 74.4016 166.588C74.1275 168.215 73.893 169.857 73.6999 171.519C73.5068 173.178 73.3568 174.849 73.2482 176.528C72.1879 192.823 71.5034 213.856 71.5034 241.012C71.5034 213.859 70.819 192.823 69.7587 176.528C69.6501 174.849 69.5001 173.178 69.307 171.519C69.1139 169.857 68.8794 168.215 68.6053 166.588C68.3295 164.964 68.014 163.36 67.6588 161.779C67.3019 160.196 66.9071 158.644 66.4744 157.119C66.0399 155.594 65.5693 154.103 65.0607 152.644C64.5503 151.189 64.0073 149.768 63.4263 148.388C62.847 147.01 62.2332 145.674 61.5867 144.381C60.9402 143.088 60.2609 141.844 59.5523 140.647C58.842 139.453 58.1041 138.308 57.3369 137.219C56.5697 136.129 55.7766 135.095 54.9577 134.118C54.1388 133.139 53.2974 132.221 52.432 131.364C51.5682 130.507 50.682 129.714 49.7786 128.981C48.8735 128.252 47.9511 127.587 47.0133 126.985C46.0754 126.387 45.1237 125.855 44.1582 125.39C43.1945 124.928 42.2187 124.533 41.2342 124.208C40.2498 123.882 39.2585 123.629 38.2619 123.446C28.5917 121.659 16.1113 120.506 0 120.506C16.1113 120.506 28.5917 119.352 38.2619 117.565C39.2585 117.382 40.2498 117.13 41.2342 116.804C42.2187 116.479 43.1945 116.084 44.1582 115.622C45.1237 115.157 46.0754 114.625 47.0133 114.026C47.9511 113.425 48.8735 112.76 49.7786 112.03C50.682 111.298 51.5682 110.505 52.432 109.645C53.2974 108.788 54.1388 107.872 54.9577 106.893C55.7766 105.917 56.5697 104.883 57.3369 103.793C58.1041 102.703 58.842 101.559 59.5523 100.364C60.2609 99.1673 60.9402 97.9237 61.5867 96.6307C62.2332 95.3377 62.847 94.0012 63.4263 92.621C64.0073 91.2409 64.5503 89.8229 65.0607 88.3643C65.5693 86.9087 66.0399 85.4152 66.4744 83.8927C66.9071 82.3672 67.3019 80.8128 67.6588 79.2321C68.014 77.6515 68.3295 76.0476 68.6053 74.4205C68.8794 72.7963 69.1139 71.1517 69.307 69.4926C69.5001 67.8335 69.6501 66.1628 69.7587 64.4834C70.819 48.1861 71.5034 27.1555 71.5034 0C71.5034 27.1526 72.1879 48.1861 73.2482 64.4834Z" fill="#317299"/>
</g>
</g>
</g>
</svg>
